<svg class="rich-terminal" viewBox="0 0 1482 782.0" xmlns="http://www.w3.org/2000/svg">
    <!-- Generated with Rich https://www.textualize.io -->
    <style>

    @font-face {
        font-family: "Fira Code";
        src: local("FiraCode-Regular"),
                url("https://cdnjs.cloudflare.com/ajax/libs/firacode/6.2.0/woff2/FiraCode-Regular.woff2") format("woff2"),
                url("https://cdnjs.cloudflare.com/ajax/libs/firacode/6.2.0/woff/FiraCode-Regular.woff") format("woff");
        font-style: normal;
        font-weight: 400;
    }
    @font-face {
        font-family: "Fira Code";
        src: local("FiraCode-Bold"),
                url("https://cdnjs.cloudflare.com/ajax/libs/firacode/6.2.0/woff2/FiraCode-Bold.woff2") format("woff2"),
                url("https://cdnjs.cloudflare.com/ajax/libs/firacode/6.2.0/woff/FiraCode-Bold.woff") format("woff");
        font-style: bold;
        font-weight: 700;
    }

    .terminal-1411898241-matrix {
        font-family: Fira Code, monospace;
        font-size: 20px;
        line-height: 24.4px;
        font-variant-east-asian: full-width;
    }

    .terminal-1411898241-title {
        font-size: 18px;
        font-weight: bold;
        font-family: arial;
    }

    .terminal-1411898241-r1 { fill: #c5c8c6 }
.terminal-1411898241-r2 { fill: #e0e0e0;font-weight: bold }
.terminal-1411898241-r3 { fill: #fea62b }
.terminal-1411898241-r4 { fill: #ffffff }
.terminal-1411898241-r5 { fill: #ffff00 }
.terminal-1411898241-r6 { fill: #0000ff }
.terminal-1411898241-r7 { fill: #00ffff }
.terminal-1411898241-r8 { fill: #0178d4 }
.terminal-1411898241-r9 { fill: #e0e0e0 }
.terminal-1411898241-r10 { fill: #797979;font-weight: bold;font-style: italic; }
.terminal-1411898241-r11 { fill: #58d1eb;font-weight: bold }
.terminal-1411898241-r12 { fill: #ffa62b;font-weight: bold }
.terminal-1411898241-r13 { fill: #495259 }
    </style>

    <defs>
    <clipPath id="terminal-1411898241-clip-terminal">
      <rect x="0" y="0" width="1463.0" height="731.0" />
    </clipPath>
    <clipPath id="terminal-1411898241-line-0">
    <rect x="0" y="1.5" width="1464" height="24.65"/>
            </clipPath>
<clipPath id="terminal-1411898241-line-1">
    <rect x="0" y="25.9" width="1464" height="24.65"/>
            </clipPath>
<clipPath id="terminal-1411898241-line-2">
    <rect x="0" y="50.3" width="1464" height="24.65"/>
            </clipPath>
<clipPath id="terminal-1411898241-line-3">
    <rect x="0" y="74.7" width="1464" height="24.65"/>
            </clipPath>
<clipPath id="terminal-1411898241-line-4">
    <rect x="0" y="99.1" width="1464" height="24.65"/>
            </clipPath>
<clipPath id="terminal-1411898241-line-5">
    <rect x="0" y="123.5" width="1464" height="24.65"/>
            </clipPath>
<clipPath id="terminal-1411898241-line-6">
    <rect x="0" y="147.9" width="1464" height="24.65"/>
            </clipPath>
<clipPath id="terminal-1411898241-line-7">
    <rect x="0" y="172.3" width="1464" height="24.65"/>
            </clipPath>
<clipPath id="terminal-1411898241-line-8">
    <rect x="0" y="196.7" width="1464" height="24.65"/>
            </clipPath>
<clipPath id="terminal-1411898241-line-9">
    <rect x="0" y="221.1" width="1464" height="24.65"/>
            </clipPath>
<clipPath id="terminal-1411898241-line-10">
    <rect x="0" y="245.5" width="1464" height="24.65"/>
            </clipPath>
<clipPath id="terminal-1411898241-line-11">
    <rect x="0" y="269.9" width="1464" height="24.65"/>
            </clipPath>
<clipPath id="terminal-1411898241-line-12">
    <rect x="0" y="294.3" width="1464" height="24.65"/>
            </clipPath>
<clipPath id="terminal-1411898241-line-13">
    <rect x="0" y="318.7" width="1464" height="24.65"/>
            </clipPath>
<clipPath id="terminal-1411898241-line-14">
    <rect x="0" y="343.1" width="1464" height="24.65"/>
            </clipPath>
<clipPath id="terminal-1411898241-line-15">
    <rect x="0" y="367.5" width="1464" height="24.65"/>
            </clipPath>
<clipPath id="terminal-1411898241-line-16">
    <rect x="0" y="391.9" width="1464" height="24.65"/>
            </clipPath>
<clipPath id="terminal-1411898241-line-17">
    <rect x="0" y="416.3" width="1464" height="24.65"/>
            </clipPath>
<clipPath id="terminal-1411898241-line-18">
    <rect x="0" y="440.7" width="1464" height="24.65"/>
            </clipPath>
<clipPath id="terminal-1411898241-line-19">
    <rect x="0" y="465.1" width="1464" height="24.65"/>
            </clipPath>
<clipPath id="terminal-1411898241-line-20">
    <rect x="0" y="489.5" width="1464" height="24.65"/>
            </clipPath>
<clipPath id="terminal-1411898241-line-21">
    <rect x="0" y="513.9" width="1464" height="24.65"/>
            </clipPath>
<clipPath id="terminal-1411898241-line-22">
    <rect x="0" y="538.3" width="1464" height="24.65"/>
            </clipPath>
<clipPath id="terminal-1411898241-line-23">
    <rect x="0" y="562.7" width="1464" height="24.65"/>
            </clipPath>
<clipPath id="terminal-1411898241-line-24">
    <rect x="0" y="587.1" width="1464" height="24.65"/>
            </clipPath>
<clipPath id="terminal-1411898241-line-25">
    <rect x="0" y="611.5" width="1464" height="24.65"/>
            </clipPath>
<clipPath id="terminal-1411898241-line-26">
    <rect x="0" y="635.9" width="1464" height="24.65"/>
            </clipPath>
<clipPath id="terminal-1411898241-line-27">
    <rect x="0" y="660.3" width="1464" height="24.65"/>
            </clipPath>
<clipPath id="terminal-1411898241-line-28">
    <rect x="0" y="684.7" width="1464" height="24.65"/>
            </clipPath>
    </defs>

    <rect fill="#292929" stroke="rgba(255,255,255,0.35)" stroke-width="1" x="1" y="1" width="1480" height="780" rx="8"/><text class="terminal-1411898241-title" fill="#c5c8c6" text-anchor="middle" x="740" y="27">ModelStack</text>
            <g transform="translate(26,22)">
            <circle cx="0" cy="0" r="7" fill="#ff5f57"/>
            <circle cx="22" cy="0" r="7" fill="#febc2e"/>
            <circle cx="44" cy="0" r="7" fill="#28c840"/>
            </g>
        
    <g transform="translate(9, 41)" clip-path="url(#terminal-1411898241-clip-terminal)">
    <rect fill="#242f38" x="0" y="1.5" width="12.2" height="24.65" shape-rendering="crispEdges"/><rect fill="#242f38" x="12.2" y="1.5" width="12.2" height="24.65" shape-rendering="crispEdges"/><rect fill="#242f38" x="24.4" y="1.5" width="61" height="24.65" shape-rendering="crispEdges"/><rect fill="#242f38" x="85.4" y="1.5" width="12.2" height="24.65" shape-rendering="crispEdges"/><rect fill="#242f38" x="97.6" y="1.5" width="561.2" height="24.65" shape-rendering="crispEdges"/><rect fill="#242f38" x="658.8" y="1.5" width="122" height="24.65" shape-rendering="crispEdges"/><rect fill="#242f38" x="780.8" y="1.5" width="561.2" height="24.65" shape-rendering="crispEdges"/><rect fill="#242f38" x="1342" y="1.5" width="12.2" height="24.65" shape-rendering="crispEdges"/><rect fill="#242f38" x="1354.2" y="1.5" width="0" height="24.65" shape-rendering="crispEdges"/><rect fill="#242f38" x="1354.2" y="1.5" width="97.6" height="24.65" shape-rendering="crispEdges"/><rect fill="#242f38" x="1451.8" y="1.5" width="12.2" height="24.65" shape-rendering="crispEdges"/><rect fill="#121212" x="0" y="25.9" width="12.2" height="24.65" shape-rendering="crispEdges"/><rect fill="#121212" x="12.2" y="25.9" width="890.6" height="24.65" shape-rendering="crispEdges"/><rect fill="#242f38" x="902.8" y="25.9" width="12.2" height="24.65" shape-rendering="crispEdges"/><rect fill="#242f38" x="915" y="25.9" width="524.6" height="24.65" shape-rendering="crispEdges"/><rect fill="#242f38" x="1439.6" y="25.9" width="12.2" height="24.65" shape-rendering="crispEdges"/><rect fill="#121212" x="1451.8" y="25.9" width="12.2" height="24.65" shape-rendering="crispEdges"/><rect fill="#121212" x="0" y="50.3" width="12.2" height="24.65" shape-rendering="crispEdges"/><rect fill="#121212" x="12.2" y="50.3" width="12.2" height="24.65" shape-rendering="crispEdges"/><rect fill="#121212" x="24.4" y="50.3" width="0" height="24.65" shape-rendering="crispEdges"/><rect fill="#121212" x="24.4" y="50.3" width="866.2" height="24.65" shape-rendering="crispEdges"/><rect fill="#121212" x="890.6" y="50.3" width="12.2" height="24.65" shape-rendering="crispEdges"/><rect fill="#242f38" x="902.8" y="50.3" width="12.2" height="24.65" shape-rendering="crispEdges"/><rect fill="#242f38" x="915" y="50.3" width="12.2" height="24.65" shape-rendering="crispEdges"/><rect fill="#242f38" x="927.2" y="50.3" width="219.6" height="24.65" shape-rendering="crispEdges"/><rect fill="#242f38" x="1146.8" y="50.3" width="280.6" height="24.65" shape-rendering="crispEdges"/><rect fill="#242f38" x="1427.4" y="50.3" width="12.2" height="24.65" shape-rendering="crispEdges"/><rect fill="#242f38" x="1439.6" y="50.3" width="12.2" height="24.65" shape-rendering="crispEdges"/><rect fill="#121212" x="1451.8" y="50.3" width="12.2" height="24.65" shape-rendering="crispEdges"/><rect fill="#121212" x="0" y="74.7" width="12.2" height="24.65" shape-rendering="crispEdges"/><rect fill="#121212" x="12.2" y="74.7" width="12.2" height="24.65" shape-rendering="crispEdges"/><rect fill="#121212" x="24.4" y="74.7" width="622.2" height="24.65" shape-rendering="crispEdges"/><rect fill="#121212" x="646.6" y="74.7" width="244" height="24.65" shape-rendering="crispEdges"/><rect fill="#121212" x="890.6" y="74.7" width="12.2" height="24.65" shape-rendering="crispEdges"/><rect fill="#242f38" x="902.8" y="74.7" width="12.2" height="24.65" shape-rendering="crispEdges"/><rect fill="#242f38" x="915" y="74.7" width="12.2" height="24.65" shape-rendering="crispEdges"/><rect fill="#242f38" x="927.2" y="74.7" width="292.8" height="24.65" shape-rendering="crispEdges"/><rect fill="#242f38" x="1220" y="74.7" width="207.4" height="24.65" shape-rendering="crispEdges"/><rect fill="#242f38" x="1427.4" y="74.7" width="12.2" height="24.65" shape-rendering="crispEdges"/><rect fill="#242f38" x="1439.6" y="74.7" width="12.2" height="24.65" shape-rendering="crispEdges"/><rect fill="#121212" x="1451.8" y="74.7" width="12.2" height="24.65" shape-rendering="crispEdges"/><rect fill="#121212" x="0" y="99.1" width="12.2" height="24.65" shape-rendering="crispEdges"/><rect fill="#121212" x="12.2" y="99.1" width="12.2" height="24.65" shape-rendering="crispEdges"/><rect fill="#121212" x="24.4" y="99.1" width="634.4" height="24.65" shape-rendering="crispEdges"/><rect fill="#121212" x="658.8" y="99.1" width="231.8" height="24.65" shape-rendering="crispEdges"/><rect fill="#121212" x="890.6" y="99.1" width="12.2" height="24.65" shape-rendering="crispEdges"/><rect fill="#242f38" x="902.8" y="99.1" width="12.2" height="24.65" shape-rendering="crispEdges"/><rect fill="#242f38" x="915" y="99.1" width="12.2" height="24.65" shape-rendering="crispEdges"/><rect fill="#242f38" x="927.2" y="99.1" width="292.8" height="24.65" shape-rendering="crispEdges"/><rect fill="#242f38" x="1220" y="99.1" width="207.4" height="24.65" shape-rendering="crispEdges"/><rect fill="#242f38" x="1427.4" y="99.1" width="12.2" height="24.65" shape-rendering="crispEdges"/><rect fill="#242f38" x="1439.6" y="99.1" width="12.2" height="24.65" shape-rendering="crispEdges"/><rect fill="#121212" x="1451.8" y="99.1" width="12.2" height="24.65" shape-rendering="crispEdges"/><rect fill="#121212" x="0" y="123.5" width="12.2" height="24.65" shape-rendering="crispEdges"/><rect fill="#121212" x="12.2" y="123.5" width="12.2" height="24.65" shape-rendering="crispEdges"/><rect fill="#121212" x="24.4" y="123.5" width="634.4" height="24.65" shape-rendering="crispEdges"/><rect fill="#121212" x="658.8" y="123.5" width="231.8" height="24.65" shape-rendering="crispEdges"/><rect fill="#121212" x="890.6" y="123.5" width="12.2" height="24.65" shape-rendering="crispEdges"/><rect fill="#242f38" x="902.8" y="123.5" width="12.2" height="24.65" shape-rendering="crispEdges"/><rect fill="#242f38" x="915" y="123.5" width="12.2" height="24.65" shape-rendering="crispEdges"/><rect fill="#242f38" x="927.2" y="123.5" width="256.2" height="24.65" shape-rendering="crispEdges"/><rect fill="#242f38" x="1183.4" y="123.5" width="244" height="24.65" shape-rendering="crispEdges"/><rect fill="#242f38" x="1427.4" y="123.5" width="12.2" height="24.65" shape-rendering="crispEdges"/><rect fill="#242f38" x="1439.6" y="123.5" width="12.2" height="24.65" shape-rendering="crispEdges"/><rect fill="#121212" x="1451.8" y="123.5" width="12.2" height="24.65" shape-rendering="crispEdges"/><rect fill="#121212" x="0" y="147.9" width="12.2" height="24.65" shape-rendering="crispEdges"/><rect fill="#121212" x="12.2" y="147.9" width="12.2" height="24.65" shape-rendering="crispEdges"/><rect fill="#121212" x="24.4" y="147.9" width="634.4" height="24.65" shape-rendering="crispEdges"/><rect fill="#121212" x="658.8" y="147.9" width="231.8" height="24.65" shape-rendering="crispEdges"/><rect fill="#121212" x="890.6" y="147.9" width="12.2" height="24.65" shape-rendering="crispEdges"/><rect fill="#242f38" x="902.8" y="147.9" width="12.2" height="24.65" shape-rendering="crispEdges"/><rect fill="#242f38" x="915" y="147.9" width="12.2" height="24.65" shape-rendering="crispEdges"/><rect fill="#242f38" x="927.2" y="147.9" width="305" height="24.65" shape-rendering="crispEdges"/><rect fill="#242f38" x="1232.2" y="147.9" width="195.2" height="24.65" shape-rendering="crispEdges"/><rect fill="#242f38" x="1427.4" y="147.9" width="12.2" height="24.65" shape-rendering="crispEdges"/><rect fill="#242f38" x="1439.6" y="147.9" width="12.2" height="24.65" shape-rendering="crispEdges"/><rect fill="#121212" x="1451.8" y="147.9" width="12.2" height="24.65" shape-rendering="crispEdges"/><rect fill="#121212" x="0" y="172.3" width="12.2" height="24.65" shape-rendering="crispEdges"/><rect fill="#121212" x="12.2" y="172.3" width="12.2" height="24.65" shape-rendering="crispEdges"/><rect fill="#121212" x="24.4" y="172.3" width="646.6" height="24.65" shape-rendering="crispEdges"/><rect fill="#121212" x="671" y="172.3" width="219.6" height="24.65" shape-rendering="crispEdges"/><rect fill="#121212" x="890.6" y="172.3" width="12.2" height="24.65" shape-rendering="crispEdges"/><rect fill="#242f38" x="902.8" y="172.3" width="12.2" height="24.65" shape-rendering="crispEdges"/><rect fill="#242f38" x="915" y="172.3" width="524.6" height="24.65" shape-rendering="crispEdges"/><rect fill="#242f38" x="1439.6" y="172.3" width="12.2" height="24.65" shape-rendering="crispEdges"/><rect fill="#121212" x="1451.8" y="172.3" width="12.2" height="24.65" shape-rendering="crispEdges"/><rect fill="#121212" x="0" y="196.7" width="12.2" height="24.65" shape-rendering="crispEdges"/><rect fill="#121212" x="12.2" y="196.7" width="12.2" height="24.65" shape-rendering="crispEdges"/><rect fill="#121212" x="24.4" y="196.7" width="0" height="24.65" shape-rendering="crispEdges"/><rect fill="#121212" x="24.4" y="196.7" width="866.2" height="24.65" shape-rendering="crispEdges"/><rect fill="#121212" x="890.6" y="196.7" width="12.2" height="24.65" shape-rendering="crispEdges"/><rect fill="#121212" x="902.8" y="196.7" width="549" height="24.65" shape-rendering="crispEdges"/><rect fill="#121212" x="1451.8" y="196.7" width="12.2" height="24.65" shape-rendering="crispEdges"/><rect fill="#121212" x="0" y="221.1" width="12.2" height="24.65" shape-rendering="crispEdges"/><rect fill="#121212" x="12.2" y="221.1" width="890.6" height="24.65" shape-rendering="crispEdges"/><rect fill="#121212" x="902.8" y="221.1" width="549" height="24.65" shape-rendering="crispEdges"/><rect fill="#121212" x="1451.8" y="221.1" width="12.2" height="24.65" shape-rendering="crispEdges"/><rect fill="#121212" x="0" y="245.5" width="12.2" height="24.65" shape-rendering="crispEdges"/><rect fill="#121212" x="12.2" y="245.5" width="1439.6" height="24.65" shape-rendering="crispEdges"/><rect fill="#121212" x="1451.8" y="245.5" width="12.2" height="24.65" shape-rendering="crispEdges"/><rect fill="#121212" x="0" y="269.9" width="1464" height="24.65" shape-rendering="crispEdges"/><rect fill="#121212" x="0" y="294.3" width="12.2" height="24.65" shape-rendering="crispEdges"/><rect fill="#1e1e1e" x="12.2" y="294.3" width="12.2" height="24.65" shape-rendering="crispEdges"/><rect fill="#1e1e1e" x="24.4" y="294.3" width="1415.2" height="24.65" shape-rendering="crispEdges"/><rect fill="#1e1e1e" x="1439.6" y="294.3" width="12.2" height="24.65" shape-rendering="crispEdges"/><rect fill="#121212" x="1451.8" y="294.3" width="12.2" height="24.65" shape-rendering="crispEdges"/><rect fill="#121212" x="0" y="318.7" width="12.2" height="24.65" shape-rendering="crispEdges"/><rect fill="#1e1e1e" x="12.2" y="318.7" width="12.2" height="24.65" shape-rendering="crispEdges"/><rect fill="#1e1e1e" x="24.4" y="318.7" width="231.8" height="24.65" shape-rendering="crispEdges"/><rect fill="#1e1e1e" x="256.2" y="318.7" width="1183.4" height="24.65" shape-rendering="crispEdges"/><rect fill="#1e1e1e" x="1439.6" y="318.7" width="12.2" height="24.65" shape-rendering="crispEdges"/><rect fill="#121212" x="1451.8" y="318.7" width="12.2" height="24.65" shape-rendering="crispEdges"/><rect fill="#121212" x="0" y="343.1" width="12.2" height="24.65" shape-rendering="crispEdges"/><rect fill="#1e1e1e" x="12.2" y="343.1" width="12.2" height="24.65" shape-rendering="crispEdges"/><rect fill="#272727" x="24.4" y="343.1" width="12.2" height="24.65" shape-rendering="crispEdges"/><rect fill="#272727" x="36.6" y="343.1" width="146.4" height="24.65" shape-rendering="crispEdges"/><rect fill="#272727" x="183" y="343.1" width="1244.4" height="24.65" shape-rendering="crispEdges"/><rect fill="#272727" x="1427.4" y="343.1" width="12.2" height="24.65" shape-rendering="crispEdges"/><rect fill="#1e1e1e" x="1439.6" y="343.1" width="12.2" height="24.65" shape-rendering="crispEdges"/><rect fill="#121212" x="1451.8" y="343.1" width="12.2" height="24.65" shape-rendering="crispEdges"/><rect fill="#121212" x="0" y="367.5" width="12.2" height="24.65" shape-rendering="crispEdges"/><rect fill="#1e1e1e" x="12.2" y="367.5" width="12.2" height="24.65" shape-rendering="crispEdges"/><rect fill="#3c3c3c" x="24.4" y="367.5" width="12.2" height="24.65" shape-rendering="crispEdges"/><rect fill="#3c3c3c" x="36.6" y="367.5" width="378.2" height="24.65" shape-rendering="crispEdges"/><rect fill="#3c3c3c" x="414.8" y="367.5" width="1012.6" height="24.65" shape-rendering="crispEdges"/><rect fill="#3c3c3c" x="1427.4" y="367.5" width="12.2" height="24.65" shape-rendering="crispEdges"/><rect fill="#1e1e1e" x="1439.6" y="367.5" width="12.2" height="24.65" shape-rendering="crispEdges"/><rect fill="#121212" x="1451.8" y="367.5" width="12.2" height="24.65" shape-rendering="crispEdges"/><rect fill="#121212" x="0" y="391.9" width="12.2" height="24.65" shape-rendering="crispEdges"/><rect fill="#1e1e1e" x="12.2" y="391.9" width="12.2" height="24.65" shape-rendering="crispEdges"/><rect fill="#272727" x="24.4" y="391.9" width="12.2" height="24.65" shape-rendering="crispEdges"/><rect fill="#272727" x="36.6" y="391.9" width="378.2" height="24.65" shape-rendering="crispEdges"/><rect fill="#272727" x="414.8" y="391.9" width="1012.6" height="24.65" shape-rendering="crispEdges"/><rect fill="#272727" x="1427.4" y="391.9" width="12.2" height="24.65" shape-rendering="crispEdges"/><rect fill="#1e1e1e" x="1439.6" y="391.9" width="12.2" height="24.65" shape-rendering="crispEdges"/><rect fill="#121212" x="1451.8" y="391.9" width="12.2" height="24.65" shape-rendering="crispEdges"/><rect fill="#121212" x="0" y="416.3" width="12.2" height="24.65" shape-rendering="crispEdges"/><rect fill="#1e1e1e" x="12.2" y="416.3" width="12.2" height="24.65" shape-rendering="crispEdges"/><rect fill="#272727" x="24.4" y="416.3" width="12.2" height="24.65" shape-rendering="crispEdges"/><rect fill="#272727" x="36.6" y="416.3" width="170.8" height="24.65" shape-rendering="crispEdges"/><rect fill="#272727" x="207.4" y="416.3" width="1220" height="24.65" shape-rendering="crispEdges"/><rect fill="#272727" x="1427.4" y="416.3" width="12.2" height="24.65" shape-rendering="crispEdges"/><rect fill="#1e1e1e" x="1439.6" y="416.3" width="12.2" height="24.65" shape-rendering="crispEdges"/><rect fill="#121212" x="1451.8" y="416.3" width="12.2" height="24.65" shape-rendering="crispEdges"/><rect fill="#121212" x="0" y="440.7" width="12.2" height="24.65" shape-rendering="crispEdges"/><rect fill="#1e1e1e" x="12.2" y="440.7" width="12.2" height="24.65" shape-rendering="crispEdges"/><rect fill="#272727" x="24.4" y="440.7" width="12.2" height="24.65" shape-rendering="crispEdges"/><rect fill="#272727" x="36.6" y="440.7" width="378.2" height="24.65" shape-rendering="crispEdges"/><rect fill="#272727" x="414.8" y="440.7" width="1012.6" height="24.65" shape-rendering="crispEdges"/><rect fill="#272727" x="1427.4" y="440.7" width="12.2" height="24.65" shape-rendering="crispEdges"/><rect fill="#1e1e1e" x="1439.6" y="440.7" width="12.2" height="24.65" shape-rendering="crispEdges"/><rect fill="#121212" x="1451.8" y="440.7" width="12.2" height="24.65" shape-rendering="crispEdges"/><rect fill="#121212" x="0" y="465.1" width="12.2" height="24.65" shape-rendering="crispEdges"/><rect fill="#1e1e1e" x="12.2" y="465.1" width="12.2" height="24.65" shape-rendering="crispEdges"/><rect fill="#272727" x="24.4" y="465.1" width="12.2" height="24.65" shape-rendering="crispEdges"/><rect fill="#272727" x="36.6" y="465.1" width="378.2" height="24.65" shape-rendering="crispEdges"/><rect fill="#272727" x="414.8" y="465.1" width="1012.6" height="24.65" shape-rendering="crispEdges"/><rect fill="#272727" x="1427.4" y="465.1" width="12.2" height="24.65" shape-rendering="crispEdges"/><rect fill="#1e1e1e" x="1439.6" y="465.1" width="12.2" height="24.65" shape-rendering="crispEdges"/><rect fill="#121212" x="1451.8" y="465.1" width="12.2" height="24.65" shape-rendering="crispEdges"/><rect fill="#121212" x="0" y="489.5" width="12.2" height="24.65" shape-rendering="crispEdges"/><rect fill="#1e1e1e" x="12.2" y="489.5" width="12.2" height="24.65" shape-rendering="crispEdges"/><rect fill="#272727" x="24.4" y="489.5" width="12.2" height="24.65" shape-rendering="crispEdges"/><rect fill="#272727" x="36.6" y="489.5" width="231.8" height="24.65" shape-rendering="crispEdges"/><rect fill="#272727" x="268.4" y="489.5" width="1159" height="24.65" shape-rendering="crispEdges"/><rect fill="#272727" x="1427.4" y="489.5" width="12.2" height="24.65" shape-rendering="crispEdges"/><rect fill="#1e1e1e" x="1439.6" y="489.5" width="12.2" height="24.65" shape-rendering="crispEdges"/><rect fill="#121212" x="1451.8" y="489.5" width="12.2" height="24.65" shape-rendering="crispEdges"/><rect fill="#121212" x="0" y="513.9" width="12.2" height="24.65" shape-rendering="crispEdges"/><rect fill="#1e1e1e" x="12.2" y="513.9" width="12.2" height="24.65" shape-rendering="crispEdges"/><rect fill="#272727" x="24.4" y="513.9" width="12.2" height="24.65" shape-rendering="crispEdges"/><rect fill="#272727" x="36.6" y="513.9" width="378.2" height="24.65" shape-rendering="crispEdges"/><rect fill="#272727" x="414.8" y="513.9" width="1012.6" height="24.65" shape-rendering="crispEdges"/><rect fill="#272727" x="1427.4" y="513.9" width="12.2" height="24.65" shape-rendering="crispEdges"/><rect fill="#1e1e1e" x="1439.6" y="513.9" width="12.2" height="24.65" shape-rendering="crispEdges"/><rect fill="#121212" x="1451.8" y="513.9" width="12.2" height="24.65" shape-rendering="crispEdges"/><rect fill="#121212" x="0" y="538.3" width="12.2" height="24.65" shape-rendering="crispEdges"/><rect fill="#1e1e1e" x="12.2" y="538.3" width="12.2" height="24.65" shape-rendering="crispEdges"/><rect fill="#272727" x="24.4" y="538.3" width="12.2" height="24.65" shape-rendering="crispEdges"/><rect fill="#272727" x="36.6" y="538.3" width="378.2" height="24.65" shape-rendering="crispEdges"/><rect fill="#272727" x="414.8" y="538.3" width="1012.6" height="24.65" shape-rendering="crispEdges"/><rect fill="#272727" x="1427.4" y="538.3" width="12.2" height="24.65" shape-rendering="crispEdges"/><rect fill="#1e1e1e" x="1439.6" y="538.3" width="12.2" height="24.65" shape-rendering="crispEdges"/><rect fill="#121212" x="1451.8" y="538.3" width="12.2" height="24.65" shape-rendering="crispEdges"/><rect fill="#121212" x="0" y="562.7" width="12.2" height="24.65" shape-rendering="crispEdges"/><rect fill="#1e1e1e" x="12.2" y="562.7" width="12.2" height="24.65" shape-rendering="crispEdges"/><rect fill="#272727" x="24.4" y="562.7" width="1415.2" height="24.65" shape-rendering="crispEdges"/><rect fill="#1e1e1e" x="1439.6" y="562.7" width="12.2" height="24.65" shape-rendering="crispEdges"/><rect fill="#121212" x="1451.8" y="562.7" width="12.2" height="24.65" shape-rendering="crispEdges"/><rect fill="#121212" x="0" y="587.1" width="12.2" height="24.65" shape-rendering="crispEdges"/><rect fill="#1e1e1e" x="12.2" y="587.1" width="12.2" height="24.65" shape-rendering="crispEdges"/><rect fill="#1e1e1e" x="24.4" y="587.1" width="1415.2" height="24.65" shape-rendering="crispEdges"/><rect fill="#1e1e1e" x="1439.6" y="587.1" width="12.2" height="24.65" shape-rendering="crispEdges"/><rect fill="#121212" x="1451.8" y="587.1" width="12.2" height="24.65" shape-rendering="crispEdges"/><rect fill="#121212" x="0" y="611.5" width="1464" height="24.65" shape-rendering="crispEdges"/><rect fill="#121212" x="0" y="635.9" width="12.2" height="24.65" shape-rendering="crispEdges"/><rect fill="#121212" x="12.2" y="635.9" width="12.2" height="24.65" shape-rendering="crispEdges"/><rect fill="#121212" x="24.4" y="635.9" width="1415.2" height="24.65" shape-rendering="crispEdges"/><rect fill="#121212" x="1439.6" y="635.9" width="12.2" height="24.65" shape-rendering="crispEdges"/><rect fill="#121212" x="1451.8" y="635.9" width="12.2" height="24.65" shape-rendering="crispEdges"/><rect fill="#121212" x="0" y="660.3" width="12.2" height="24.65" shape-rendering="crispEdges"/><rect fill="#121212" x="12.2" y="660.3" width="12.2" height="24.65" shape-rendering="crispEdges"/><rect fill="#121212" x="24.4" y="660.3" width="12.2" height="24.65" shape-rendering="crispEdges"/><rect fill="#121212" x="36.6" y="660.3" width="73.2" height="24.65" shape-rendering="crispEdges"/><rect fill="#121212" x="109.8" y="660.3" width="1317.6" height="24.65" shape-rendering="crispEdges"/><rect fill="#121212" x="1427.4" y="660.3" width="12.2" height="24.65" shape-rendering="crispEdges"/><rect fill="#121212" x="1439.6" y="660.3" width="12.2" height="24.65" shape-rendering="crispEdges"/><rect fill="#121212" x="1451.8" y="660.3" width="12.2" height="24.65" shape-rendering="crispEdges"/><rect fill="#121212" x="0" y="684.7" width="12.2" height="24.65" shape-rendering="crispEdges"/><rect fill="#121212" x="12.2" y="684.7" width="12.2" height="24.65" shape-rendering="crispEdges"/><rect fill="#121212" x="24.4" y="684.7" width="1415.2" height="24.65" shape-rendering="crispEdges"/><rect fill="#121212" x="1439.6" y="684.7" width="12.2" height="24.65" shape-rendering="crispEdges"/><rect fill="#121212" x="1451.8" y="684.7" width="12.2" height="24.65" shape-rendering="crispEdges"/><rect fill="#242f38" x="0" y="709.1" width="36.6" height="24.65" shape-rendering="crispEdges"/><rect fill="#242f38" x="36.6" y="709.1" width="61" height="24.65" shape-rendering="crispEdges"/><rect fill="#242f38" x="97.6" y="709.1" width="36.6" height="24.65" shape-rendering="crispEdges"/><rect fill="#242f38" x="134.2" y="709.1" width="85.4" height="24.65" shape-rendering="crispEdges"/><rect fill="#242f38" x="219.6" y="709.1" width="36.6" height="24.65" shape-rendering="crispEdges"/><rect fill="#242f38" x="256.2" y="709.1" width="85.4" height="24.65" shape-rendering="crispEdges"/><rect fill="#242f38" x="341.6" y="709.1" width="36.6" height="24.65" shape-rendering="crispEdges"/><rect fill="#242f38" x="378.2" y="709.1" width="97.6" height="24.65" shape-rendering="crispEdges"/><rect fill="#242f38" x="475.8" y="709.1" width="36.6" height="24.65" shape-rendering="crispEdges"/><rect fill="#242f38" x="512.4" y="709.1" width="122" height="24.65" shape-rendering="crispEdges"/><rect fill="#242f38" x="634.4" y="709.1" width="36.6" height="24.65" shape-rendering="crispEdges"/><rect fill="#242f38" x="671" y="709.1" width="109.8" height="24.65" shape-rendering="crispEdges"/><rect fill="#242f38" x="780.8" y="709.1" width="36.6" height="24.65" shape-rendering="crispEdges"/><rect fill="#242f38" x="817.4" y="709.1" width="61" height="24.65" shape-rendering="crispEdges"/><rect fill="#242f38" x="878.4" y="709.1" width="36.6" height="24.65" shape-rendering="crispEdges"/><rect fill="#242f38" x="915" y="709.1" width="61" height="24.65" shape-rendering="crispEdges"/><rect fill="#242f38" x="976" y="709.1" width="36.6" height="24.65" shape-rendering="crispEdges"/><rect fill="#242f38" x="1012.6" y="709.1" width="61" height="24.65" shape-rendering="crispEdges"/><rect fill="#242f38" x="1073.6" y="709.1" width="244" height="24.65" shape-rendering="crispEdges"/><rect fill="#242f38" x="1317.6" y="709.1" width="12.2" height="24.65" shape-rendering="crispEdges"/><rect fill="#242f38" x="1329.8" y="709.1" width="24.4" height="24.65" shape-rendering="crispEdges"/><rect fill="#242f38" x="1354.2" y="709.1" width="97.6" height="24.65" shape-rendering="crispEdges"/><rect fill="#242f38" x="1451.8" y="709.1" width="12.2" height="24.65" shape-rendering="crispEdges"/>
    <g class="terminal-1411898241-matrix">
    <text class="terminal-1411898241-r2" x="12.2" y="20" textLength="12.2" clip-path="url(#terminal-1411898241-line-0)">⭘</text><text class="terminal-1411898241-r2" x="658.8" y="20" textLength="122" clip-path="url(#terminal-1411898241-line-0)">ModelStack</text><text class="terminal-1411898241-r1" x="1464" y="20" textLength="12.2" clip-path="url(#terminal-1411898241-line-0)">
</text><text class="terminal-1411898241-r3" x="902.8" y="44.4" textLength="12.2" clip-path="url(#terminal-1411898241-line-1)">╔</text><text class="terminal-1411898241-r3" x="915" y="44.4" textLength="524.6" clip-path="url(#terminal-1411898241-line-1)">═══════════════════════════════════════════</text><text class="terminal-1411898241-r3" x="1439.6" y="44.4" textLength="12.2" clip-path="url(#terminal-1411898241-line-1)">╗</text><text class="terminal-1411898241-r1" x="1464" y="44.4" textLength="12.2" clip-path="url(#terminal-1411898241-line-1)">
</text><text class="terminal-1411898241-r3" x="902.8" y="68.8" textLength="12.2" clip-path="url(#terminal-1411898241-line-2)">║</text><text class="terminal-1411898241-r4" x="927.2" y="68.8" textLength="219.6" clip-path="url(#terminal-1411898241-line-2)">&#160;⦿&#160;Running:&#160;(none)</text><text class="terminal-1411898241-r3" x="1439.6" y="68.8" textLength="12.2" clip-path="url(#terminal-1411898241-line-2)">║</text><text class="terminal-1411898241-r1" x="1464" y="68.8" textLength="12.2" clip-path="url(#terminal-1411898241-line-2)">
</text><text class="terminal-1411898241-r3" x="24.4" y="93.2" textLength="622.2" clip-path="url(#terminal-1411898241-line-3)">__&#160;&#160;__&#160;&#160;&#160;&#160;&#160;&#160;&#160;&#160;&#160;&#160;&#160;_&#160;&#160;&#160;&#160;&#160;&#160;_&#160;____&#160;&#160;_&#160;&#160;&#160;&#160;&#160;&#160;&#160;&#160;&#160;&#160;&#160;&#160;&#160;_&#160;&#160;&#160;&#160;</text><text class="terminal-1411898241-r3" x="902.8" y="93.2" textLength="12.2" clip-path="url(#terminal-1411898241-line-3)">║</text><text class="terminal-1411898241-r5" x="927.2" y="93.2" textLength="292.8" clip-path="url(#terminal-1411898241-line-3)">&#160;⚛&#160;GPU:&#160;377/6144&#160;MB&#160;(0%)</text><text class="terminal-1411898241-r3" x="1439.6" y="93.2" textLength="12.2" clip-path="url(#terminal-1411898241-line-3)">║</text><text class="terminal-1411898241-r1" x="1464" y="93.2" textLength="12.2" clip-path="url(#terminal-1411898241-line-3)">
</text><text class="terminal-1411898241-r3" x="24.4" y="117.6" textLength="634.4" clip-path="url(#terminal-1411898241-line-4)">|&#160;&#160;\/&#160;&#160;|&#160;___&#160;&#160;&#160;__|&#160;|&#160;___|&#160;/&#160;___||&#160;|_&#160;__&#160;_&#160;&#160;___|&#160;|&#160;__</text><text class="terminal-1411898241-r3" x="902.8" y="117.6" textLength="12.2" clip-path="url(#terminal-1411898241-line-4)">║</text><text class="terminal-1411898241-r5" x="927.2" y="117.6" textLength="292.8" clip-path="url(#terminal-1411898241-line-4)">&#160;⚙&#160;RAM:&#160;4.7/15.6&#160;GB&#160;free</text><text class="terminal-1411898241-r3" x="1439.6" y="117.6" textLength="12.2" clip-path="url(#terminal-1411898241-line-4)">║</text><text class="terminal-1411898241-r1" x="1464" y="117.6" textLength="12.2" clip-path="url(#terminal-1411898241-line-4)">
</text><text class="terminal-1411898241-r3" x="24.4" y="142" textLength="634.4" clip-path="url(#terminal-1411898241-line-5)">|&#160;|\/|&#160;|/&#160;_&#160;\&#160;/&#160;_`&#160;|/&#160;_&#160;\&#160;\___&#160;\|&#160;__/&#160;_`&#160;|/&#160;__|&#160;&#160;&#160;&lt;&#160;</text><text class="terminal-1411898241-r3" x="902.8" y="142" textLength="12.2" clip-path="url(#terminal-1411898241-line-5)">║</text><text class="terminal-1411898241-r6" x="927.2" y="142" textLength="256.2" clip-path="url(#terminal-1411898241-line-5)">&#160;➔&#160;Dir:&#160;D:\ModelStack</text><text class="terminal-1411898241-r3" x="1439.6" y="142" textLength="12.2" clip-path="url(#terminal-1411898241-line-5)">║</text><text class="terminal-1411898241-r1" x="1464" y="142" textLength="12.2" clip-path="url(#terminal-1411898241-line-5)">
</text><text class="terminal-1411898241-r3" x="24.4" y="166.4" textLength="634.4" clip-path="url(#terminal-1411898241-line-6)">|&#160;|&#160;&#160;|&#160;|&#160;(_)&#160;|&#160;(_|&#160;|&#160;&#160;__/&#160;&#160;___)&#160;|&#160;||&#160;(_|&#160;|&#160;(__|&#160;|\&#160;\</text><text class="terminal-1411898241-r3" x="902.8" y="166.4" textLength="12.2" clip-path="url(#terminal-1411898241-line-6)">║</text><text class="terminal-1411898241-r7" x="927.2" y="166.4" textLength="305" clip-path="url(#terminal-1411898241-line-6)">&#160;♥&#160;Preferred:&#160;llama3.2:3b</text><text class="terminal-1411898241-r3" x="1439.6" y="166.4" textLength="12.2" clip-path="url(#terminal-1411898241-line-6)">║</text><text class="terminal-1411898241-r1" x="1464" y="166.4" textLength="12.2" clip-path="url(#terminal-1411898241-line-6)">
</text><text class="terminal-1411898241-r3" x="24.4" y="190.8" textLength="646.6" clip-path="url(#terminal-1411898241-line-7)">|_|&#160;&#160;|_|\___/&#160;\__,_|\___|&#160;|____/&#160;\__\__,_|\___|_|&#160;\_\</text><text class="terminal-1411898241-r3" x="902.8" y="190.8" textLength="12.2" clip-path="url(#terminal-1411898241-line-7)">╚</text><text class="terminal-1411898241-r3" x="915" y="190.8" textLength="524.6" clip-path="url(#terminal-1411898241-line-7)">═══════════════════════════════════════════</text><text class="terminal-1411898241-r3" x="1439.6" y="190.8" textLength="12.2" clip-path="url(#terminal-1411898241-line-7)">╝</text><text class="terminal-1411898241-r1" x="1464" y="190.8" textLength="12.2" clip-path="url(#terminal-1411898241-line-7)">
</text><text class="terminal-1411898241-r1" x="1464" y="215.2" textLength="12.2" clip-path="url(#terminal-1411898241-line-8)">
</text><text class="terminal-1411898241-r1" x="1464" y="239.6" textLength="12.2" clip-path="url(#terminal-1411898241-line-9)">
</text><text class="terminal-1411898241-r8" x="12.2" y="264" textLength="1439.6" clip-path="url(#terminal-1411898241-line-10)">▁▁▁▁▁▁▁▁▁▁▁▁▁▁▁▁▁▁▁▁▁▁▁▁▁▁▁▁▁▁▁▁▁▁▁▁▁▁▁▁▁▁▁▁▁▁▁▁▁▁▁▁▁▁▁▁▁▁▁▁▁▁▁▁▁▁▁▁▁▁▁▁▁▁▁▁▁▁▁▁▁▁▁▁▁▁▁▁▁▁▁▁▁▁▁▁▁▁▁▁▁▁▁▁▁▁▁▁▁▁▁▁▁▁▁▁▁▁</text><text class="terminal-1411898241-r1" x="1464" y="264" textLength="12.2" clip-path="url(#terminal-1411898241-line-10)">
</text><text class="terminal-1411898241-r1" x="1464" y="288.4" textLength="12.2" clip-path="url(#terminal-1411898241-line-11)">
</text><text class="terminal-1411898241-r3" x="12.2" y="312.8" textLength="12.2" clip-path="url(#terminal-1411898241-line-12)">╭</text><text class="terminal-1411898241-r3" x="24.4" y="312.8" textLength="1415.2" clip-path="url(#terminal-1411898241-line-12)">────────────────────────────────────────────────────────────────────────────────────────────────────────────────────</text><text class="terminal-1411898241-r3" x="1439.6" y="312.8" textLength="12.2" clip-path="url(#terminal-1411898241-line-12)">╮</text><text class="terminal-1411898241-r1" x="1464" y="312.8" textLength="12.2" clip-path="url(#terminal-1411898241-line-12)">
</text><text class="terminal-1411898241-r3" x="12.2" y="337.2" textLength="12.2" clip-path="url(#terminal-1411898241-line-13)">│</text><text class="terminal-1411898241-r9" x="24.4" y="337.2" textLength="231.8" clip-path="url(#terminal-1411898241-line-13)">&#160;❯&#160;INSTALLED&#160;MODELS</text><text class="terminal-1411898241-r3" x="1439.6" y="337.2" textLength="12.2" clip-path="url(#terminal-1411898241-line-13)">│</text><text class="terminal-1411898241-r1" x="1464" y="337.2" textLength="12.2" clip-path="url(#terminal-1411898241-line-13)">
</text><text class="terminal-1411898241-r3" x="12.2" y="361.6" textLength="12.2" clip-path="url(#terminal-1411898241-line-14)">│</text><text class="terminal-1411898241-r10" x="36.6" y="361.6" textLength="146.4" clip-path="url(#terminal-1411898241-line-14)">──&#160;gemma4&#160;──</text><text class="terminal-1411898241-r3" x="1439.6" y="361.6" textLength="12.2" clip-path="url(#terminal-1411898241-line-14)">│</text><text class="terminal-1411898241-r1" x="1464" y="361.6" textLength="12.2" clip-path="url(#terminal-1411898241-line-14)">
</text><text class="terminal-1411898241-r3" x="12.2" y="386" textLength="12.2" clip-path="url(#terminal-1411898241-line-15)">│</text><text class="terminal-1411898241-r9" x="36.6" y="386" textLength="378.2" clip-path="url(#terminal-1411898241-line-15)">&#160;&#160;e4b&#160;&#160;&#160;&#160;&#160;&#160;&#160;&#160;&#160;&#160;&#160;&#160;&#160;&#160;&#160;&#160;&#160;&#160;(9.6&#160;GB)</text><text class="terminal-1411898241-r3" x="1439.6" y="386" textLength="12.2" clip-path="url(#terminal-1411898241-line-15)">│</text><text class="terminal-1411898241-r1" x="1464" y="386" textLength="12.2" clip-path="url(#terminal-1411898241-line-15)">
</text><text class="terminal-1411898241-r3" x="12.2" y="410.4" textLength="12.2" clip-path="url(#terminal-1411898241-line-16)">│</text><text class="terminal-1411898241-r9" x="36.6" y="410.4" textLength="378.2" clip-path="url(#terminal-1411898241-line-16)">&#160;&#160;latest&#160;&#160;&#160;&#160;&#160;&#160;&#160;&#160;&#160;&#160;&#160;&#160;&#160;&#160;&#160;(9.6&#160;GB)</text><text class="terminal-1411898241-r3" x="1439.6" y="410.4" textLength="12.2" clip-path="url(#terminal-1411898241-line-16)">│</text><text class="terminal-1411898241-r1" x="1464" y="410.4" textLength="12.2" clip-path="url(#terminal-1411898241-line-16)">
</text><text class="terminal-1411898241-r3" x="12.2" y="434.8" textLength="12.2" clip-path="url(#terminal-1411898241-line-17)">│</text><text class="terminal-1411898241-r10" x="36.6" y="434.8" textLength="170.8" clip-path="url(#terminal-1411898241-line-17)">──&#160;llama3.2&#160;──</text><text class="terminal-1411898241-r3" x="1439.6" y="434.8" textLength="12.2" clip-path="url(#terminal-1411898241-line-17)">│</text><text class="terminal-1411898241-r1" x="1464" y="434.8" textLength="12.2" clip-path="url(#terminal-1411898241-line-17)">
</text><text class="terminal-1411898241-r3" x="12.2" y="459.2" textLength="12.2" clip-path="url(#terminal-1411898241-line-18)">│</text><text class="terminal-1411898241-r11" x="36.6" y="459.2" textLength="378.2" clip-path="url(#terminal-1411898241-line-18)">&#160;&#160;3b&#160;&#160;&#160;&#160;&#160;&#160;&#160;&#160;&#160;&#160;&#160;&#160;&#160;&#160;&#160;&#160;&#160;&#160;&#160;(2.0&#160;GB)</text><text class="terminal-1411898241-r3" x="1439.6" y="459.2" textLength="12.2" clip-path="url(#terminal-1411898241-line-18)">│</text><text class="terminal-1411898241-r1" x="1464" y="459.2" textLength="12.2" clip-path="url(#terminal-1411898241-line-18)">
</text><text class="terminal-1411898241-r3" x="12.2" y="483.6" textLength="12.2" clip-path="url(#terminal-1411898241-line-19)">│</text><text class="terminal-1411898241-r9" x="36.6" y="483.6" textLength="378.2" clip-path="url(#terminal-1411898241-line-19)">&#160;&#160;latest&#160;&#160;&#160;&#160;&#160;&#160;&#160;&#160;&#160;&#160;&#160;&#160;&#160;&#160;&#160;(2.0&#160;GB)</text><text class="terminal-1411898241-r3" x="1439.6" y="483.6" textLength="12.2" clip-path="url(#terminal-1411898241-line-19)">│</text><text class="terminal-1411898241-r1" x="1464" y="483.6" textLength="12.2" clip-path="url(#terminal-1411898241-line-19)">
</text><text class="terminal-1411898241-r3" x="12.2" y="508" textLength="12.2" clip-path="url(#terminal-1411898241-line-20)">│</text><text class="terminal-1411898241-r10" x="36.6" y="508" textLength="231.8" clip-path="url(#terminal-1411898241-line-20)">──&#160;qwen2.5-coder&#160;──</text><text class="terminal-1411898241-r3" x="1439.6" y="508" textLength="12.2" clip-path="url(#terminal-1411898241-line-20)">│</text><text class="terminal-1411898241-r1" x="1464" y="508" textLength="12.2" clip-path="url(#terminal-1411898241-line-20)">
</text><text class="terminal-1411898241-r3" x="12.2" y="532.4" textLength="12.2" clip-path="url(#terminal-1411898241-line-21)">│</text><text class="terminal-1411898241-r9" x="36.6" y="532.4" textLength="378.2" clip-path="url(#terminal-1411898241-line-21)">&#160;&#160;3b&#160;&#160;&#160;&#160;&#160;&#160;&#160;&#160;&#160;&#160;&#160;&#160;&#160;&#160;&#160;&#160;&#160;&#160;&#160;(1.9&#160;GB)</text><text class="terminal-1411898241-r3" x="1439.6" y="532.4" textLength="12.2" clip-path="url(#terminal-1411898241-line-21)">│</text><text class="terminal-1411898241-r1" x="1464" y="532.4" textLength="12.2" clip-path="url(#terminal-1411898241-line-21)">
</text><text class="terminal-1411898241-r3" x="12.2" y="556.8" textLength="12.2" clip-path="url(#terminal-1411898241-line-22)">│</text><text class="terminal-1411898241-r9" x="36.6" y="556.8" textLength="378.2" clip-path="url(#terminal-1411898241-line-22)">&#160;&#160;latest&#160;&#160;&#160;&#160;&#160;&#160;&#160;&#160;&#160;&#160;&#160;&#160;&#160;&#160;&#160;(4.7&#160;GB)</text><text class="terminal-1411898241-r3" x="1439.6" y="556.8" textLength="12.2" clip-path="url(#terminal-1411898241-line-22)">│</text><text class="terminal-1411898241-r1" x="1464" y="556.8" textLength="12.2" clip-path="url(#terminal-1411898241-line-22)">
</text><text class="terminal-1411898241-r3" x="12.2" y="581.2" textLength="12.2" clip-path="url(#terminal-1411898241-line-23)">│</text><text class="terminal-1411898241-r3" x="1439.6" y="581.2" textLength="12.2" clip-path="url(#terminal-1411898241-line-23)">│</text><text class="terminal-1411898241-r1" x="1464" y="581.2" textLength="12.2" clip-path="url(#terminal-1411898241-line-23)">
</text><text class="terminal-1411898241-r3" x="12.2" y="605.6" textLength="12.2" clip-path="url(#terminal-1411898241-line-24)">╰</text><text class="terminal-1411898241-r3" x="24.4" y="605.6" textLength="1415.2" clip-path="url(#terminal-1411898241-line-24)">────────────────────────────────────────────────────────────────────────────────────────────────────────────────────</text><text class="terminal-1411898241-r3" x="1439.6" y="605.6" textLength="12.2" clip-path="url(#terminal-1411898241-line-24)">╯</text><text class="terminal-1411898241-r1" x="1464" y="605.6" textLength="12.2" clip-path="url(#terminal-1411898241-line-24)">
</text><text class="terminal-1411898241-r1" x="1464" y="630" textLength="12.2" clip-path="url(#terminal-1411898241-line-25)">
</text><text class="terminal-1411898241-r3" x="12.2" y="654.4" textLength="12.2" clip-path="url(#terminal-1411898241-line-26)">╭</text><text class="terminal-1411898241-r3" x="24.4" y="654.4" textLength="1415.2" clip-path="url(#terminal-1411898241-line-26)">────────────────────────────────────────────────────────────────────────────────────────────────────────────────────</text><text class="terminal-1411898241-r3" x="1439.6" y="654.4" textLength="12.2" clip-path="url(#terminal-1411898241-line-26)">╮</text><text class="terminal-1411898241-r1" x="1464" y="654.4" textLength="12.2" clip-path="url(#terminal-1411898241-line-26)">
</text><text class="terminal-1411898241-r3" x="12.2" y="678.8" textLength="12.2" clip-path="url(#terminal-1411898241-line-27)">│</text><text class="terminal-1411898241-r3" x="36.6" y="678.8" textLength="73.2" clip-path="url(#terminal-1411898241-line-27)">Ready.</text><text class="terminal-1411898241-r3" x="1439.6" y="678.8" textLength="12.2" clip-path="url(#terminal-1411898241-line-27)">│</text><text class="terminal-1411898241-r1" x="1464" y="678.8" textLength="12.2" clip-path="url(#terminal-1411898241-line-27)">
</text><text class="terminal-1411898241-r3" x="12.2" y="703.2" textLength="12.2" clip-path="url(#terminal-1411898241-line-28)">╰</text><text class="terminal-1411898241-r3" x="24.4" y="703.2" textLength="1415.2" clip-path="url(#terminal-1411898241-line-28)">────────────────────────────────────────────────────────────────────────────────────────────────────────────────────</text><text class="terminal-1411898241-r3" x="1439.6" y="703.2" textLength="12.2" clip-path="url(#terminal-1411898241-line-28)">╯</text><text class="terminal-1411898241-r1" x="1464" y="703.2" textLength="12.2" clip-path="url(#terminal-1411898241-line-28)">
</text><text class="terminal-1411898241-r12" x="0" y="727.6" textLength="36.6" clip-path="url(#terminal-1411898241-line-29)">&#160;p&#160;</text><text class="terminal-1411898241-r2" x="36.6" y="727.6" textLength="61" clip-path="url(#terminal-1411898241-line-29)">Pull&#160;</text><text class="terminal-1411898241-r12" x="97.6" y="727.6" textLength="36.6" clip-path="url(#terminal-1411898241-line-29)">&#160;d&#160;</text><text class="terminal-1411898241-r2" x="134.2" y="727.6" textLength="85.4" clip-path="url(#terminal-1411898241-line-29)">Delete&#160;</text><text class="terminal-1411898241-r12" x="219.6" y="727.6" textLength="36.6" clip-path="url(#terminal-1411898241-line-29)">&#160;u&#160;</text><text class="terminal-1411898241-r2" x="256.2" y="727.6" textLength="85.4" clip-path="url(#terminal-1411898241-line-29)">Update&#160;</text><text class="terminal-1411898241-r12" x="341.6" y="727.6" textLength="36.6" clip-path="url(#terminal-1411898241-line-29)">&#160;w&#160;</text><text class="terminal-1411898241-r2" x="378.2" y="727.6" textLength="97.6" clip-path="url(#terminal-1411898241-line-29)">WorkDir&#160;</text><text class="terminal-1411898241-r12" x="475.8" y="727.6" textLength="36.6" clip-path="url(#terminal-1411898241-line-29)">&#160;b&#160;</text><text class="terminal-1411898241-r2" x="512.4" y="727.6" textLength="122" clip-path="url(#terminal-1411898241-line-29)">Bookmarks&#160;</text><text class="terminal-1411898241-r12" x="634.4" y="727.6" textLength="36.6" clip-path="url(#terminal-1411898241-line-29)">&#160;t&#160;</text><text class="terminal-1411898241-r2" x="671" y="727.6" textLength="109.8" clip-path="url(#terminal-1411898241-line-29)">Profiles&#160;</text><text class="terminal-1411898241-r12" x="780.8" y="727.6" textLength="36.6" clip-path="url(#terminal-1411898241-line-29)">&#160;r&#160;</text><text class="terminal-1411898241-r2" x="817.4" y="727.6" textLength="61" clip-path="url(#terminal-1411898241-line-29)">Sync&#160;</text><text class="terminal-1411898241-r12" x="878.4" y="727.6" textLength="36.6" clip-path="url(#terminal-1411898241-line-29)">&#160;x&#160;</text><text class="terminal-1411898241-r2" x="915" y="727.6" textLength="61" clip-path="url(#terminal-1411898241-line-29)">Stop&#160;</text><text class="terminal-1411898241-r12" x="976" y="727.6" textLength="36.6" clip-path="url(#terminal-1411898241-line-29)">&#160;q&#160;</text><text class="terminal-1411898241-r2" x="1012.6" y="727.6" textLength="61" clip-path="url(#terminal-1411898241-line-29)">Quit&#160;</text><text class="terminal-1411898241-r13" x="1317.6" y="727.6" textLength="12.2" clip-path="url(#terminal-1411898241-line-29)">▏</text><text class="terminal-1411898241-r12" x="1329.8" y="727.6" textLength="24.4" clip-path="url(#terminal-1411898241-line-29)">^p</text><text class="terminal-1411898241-r2" x="1354.2" y="727.6" textLength="97.6" clip-path="url(#terminal-1411898241-line-29)">&#160;palette</text>
    </g>
    </g>
</svg>
